<?xml version="1.0" standalone="no"?>
<!DOCTYPE svg PUBLIC "-//W3C//DTD SVG 20010904//EN"
 "http://www.w3.org/TR/2001/REC-SVG-20010904/DTD/svg10.dtd">
<svg version="1.0" xmlns="http://www.w3.org/2000/svg"
 width="1496.000000pt" height="1496.000000pt" viewBox="0 0 1496.000000 1496.000000"
 preserveAspectRatio="xMidYMid meet">
<metadata>
Created by potrace 1.14, written by Peter Selinger 2001-2017
</metadata>
<g transform="translate(0.000000,1496.000000) scale(0.100000,-0.100000)"
fill="#000000" stroke="none">
<path d="M7468 13803 c-16 -20 -28 -42 -28 -50 0 -7 -4 -13 -10 -13 -5 0 -10
-4 -10 -10 0 -5 -73 -132 -162 -282 -88 -150 -169 -287 -179 -304 -9 -18 -40
-69 -68 -114 -28 -45 -51 -83 -51 -86 0 -2 -16 -28 -35 -58 -19 -30 -35 -57
-35 -60 0 -2 -18 -33 -40 -67 -22 -35 -43 -71 -47 -79 -4 -8 -42 -72 -84 -142
-43 -70 -106 -176 -140 -235 -34 -60 -64 -110 -68 -113 -11 -9 -61 -89 -61
-99 0 -10 -87 -158 -135 -231 -17 -25 -35 -54 -42 -65 -38 -64 -150 -254 -163
-276 -29 -49 -91 -154 -115 -194 -14 -22 -44 -74 -67 -115 -23 -41 -53 -93
-67 -115 -15 -22 -33 -52 -40 -67 -8 -16 -18 -28 -23 -28 -4 0 -8 -7 -8 -15 0
-9 -86 -161 -191 -338 -105 -177 -202 -340 -214 -362 -13 -22 -84 -143 -159
-269 -75 -125 -136 -230 -136 -232 0 -1 -12 -22 -27 -46 -34 -53 -54 -86 -187
-311 -22 -38 -206 -349 -451 -762 -98 -165 -242 -408 -320 -540 -258 -437
-595 -1006 -773 -1305 -97 -162 -180 -304 -186 -315 -6 -11 -19 -31 -27 -45
-9 -14 -76 -126 -149 -250 -73 -124 -182 -308 -243 -410 -60 -102 -119 -201
-130 -220 -10 -19 -23 -39 -27 -45 -4 -5 -19 -30 -32 -55 -21 -38 -177 -300
-208 -350 -5 -8 -29 -49 -53 -90 -24 -41 -88 -149 -142 -240 -54 -91 -134
-226 -178 -300 -44 -74 -87 -147 -96 -162 -9 -14 -37 -62 -62 -105 -37 -63
-198 -334 -290 -488 -10 -16 -24 -41 -32 -55 -7 -14 -54 -92 -103 -175 -192
-322 -390 -655 -404 -682 -9 -15 -88 -149 -176 -298 -303 -508 -517 -870 -545
-921 -25 -45 -27 -53 -14 -64 12 -10 1482 -13 7275 -14 6845 -1 7261 0 7266
16 6 20 -8 49 -48 99 -16 20 -30 44 -32 52 -1 9 -9 24 -17 34 -9 10 -38 56
-64 103 -120 209 -148 255 -159 262 -6 4 -11 15 -11 25 0 10 -5 18 -12 18 -7
0 -18 7 -25 15 -11 12 -11 12 5 1 14 -12 17 -11 17 3 0 9 -11 21 -25 26 -18 7
-25 17 -25 35 0 17 -4 24 -11 19 -7 -4 -9 0 -5 14 5 14 1 25 -14 35 -11 7 -17
17 -13 20 3 4 1 7 -5 7 -6 0 -9 7 -5 17 4 9 2 14 -3 11 -5 -3 -18 4 -29 15
-17 17 -18 19 -2 14 21 -8 20 -6 -46 101 -26 42 -47 67 -50 60 -3 -7 -5 -2 -4
12 2 19 -3 26 -20 28 -13 2 -23 7 -23 12 0 5 8 7 18 3 16 -6 16 -5 2 13 -9 10
-22 33 -30 49 -8 17 -36 65 -62 107 -27 43 -48 82 -48 88 0 5 -4 10 -9 10 -5
0 -12 8 -15 18 -3 9 -12 26 -19 37 -32 55 -375 632 -562 950 -121 205 -219
369 -262 440 -13 22 -55 92 -92 155 -84 143 -269 456 -387 655 -49 83 -91 155
-94 160 -3 6 -52 89 -109 185 -58 96 -151 254 -208 350 -57 96 -108 182 -113
190 -20 33 -105 176 -115 195 -7 11 -59 99 -117 195 -57 96 -124 209 -148 250
-46 79 -403 681 -527 887 -40 68 -73 125 -73 127 0 2 -18 33 -40 67 -22 35
-43 71 -47 78 -4 8 -50 87 -103 175 -53 89 -99 168 -103 176 -11 22 -27 47
-104 167 -18 28 -33 54 -33 57 0 7 -90 161 -136 233 -19 29 -34 55 -34 57 0 3
-39 69 -86 148 -48 79 -120 202 -162 273 -92 160 -97 167 -107 157 -5 -4 -5
-1 -1 6 5 8 -2 28 -17 50 -13 20 -113 188 -222 372 -109 184 -266 450 -349
590 -84 140 -206 346 -271 457 -66 111 -124 199 -130 196 -5 -4 -7 -3 -3 2 10
10 -1 29 -177 325 -238 399 -299 503 -315 532 -8 15 -55 95 -105 178 -49 83
-94 158 -100 168 -5 9 -32 53 -59 97 -27 44 -90 150 -141 235 -50 85 -137 229
-192 320 -55 91 -170 282 -255 425 -85 143 -202 338 -259 434 -57 95 -108 182
-114 192 -13 25 -15 24 -47 -18z m6582 -11034 c0 -6 -4 -7 -10 -4 -5 3 -10 11
-10 16 0 6 5 7 10 4 6 -3 10 -11 10 -16z m214 -334 c3 -9 0 -15 -9 -15 -9 0
-12 6 -9 15 4 8 7 15 9 15 2 0 5 -7 9 -15z"/>
<path d="M14390 2210 c0 -5 5 -10 11 -10 5 0 7 5 4 10 -3 6 -8 10 -11 10 -2 0
-4 -4 -4 -10z"/>
</g>
</svg>
